# xmcd CD database file
#
# Track frame offsets:
#	150
#	14061
#	30522
#	54298
#	78458
#	102062
#	123716
#	141378
#	160285
#	180402
#	199055
#	219515
#	239172
#	257010
#	269977
#
# Disc length: 3873 seconds
#
# Revision: 0
# Processed by: cddbd v1.5.2PL0 Copyright (c) Steve Scherf et al.
# Submitted via: CDex 1.51
#
DISCID=e00f1f0f
DTITLE=* - The Rebirth Of NU-COOL Tributes  CD2 COOL TEMPO
DYEAR=1900
DGENRE=Jazz
TTITLE0=01.Slackwax (Canned Heat) - On The Road Again
TTITLE1=02.Bebo Best and The Super Lounge Orchestra (Nirvana) - Come As You Are
TTITLE2=03.The Moleskins (Pink Floyd) - Money
TTITLE3=04.Joseph Malik (Bill Withers) - Take It All In And Check It All Out
TTITLE4=05.JoJo Effect (Sonny and Cher) - The Beat Goes On
TTITLE5=06.Salome De Bahia (Charles Trenet) - Que Reste-t-il De Nos Amours
TTITLE6=07.Johanna (Edith Piaf) - La Vie En Rose
TTITLE7=08.Waldeck (The Andrews Sisters) - Bei Mir Bist Du Schʃn
TTITLE8=09.Club Des Belugas ft. Brenda Boykin (Duke Ellington) - It Don't Mean A Thing
TTITLE9=10.Belleruche (Django Reinhardt) - Minor Swing
TTITLE10=11.The Lion ft. Noelle Scaggs (Lyn Collins) - Think (About It)
TTITLE11=12.Nostalgia 77 ft. Alice Russell (The White Stripes) - Seven Nation Army
TTITLE12=13.The Bamboos (Max Sedgley) - Happy
TTITLE13=14.The Quantic Soul Orchestra (4Hero) - Hold It Down
TTITLE14=15.The Jumbonics (The Strokes) - Last Nite
EXTD=
EXTT0=
EXTT1=
EXTT2=
EXTT3=
EXTT4=
EXTT5=
EXTT6=
EXTT7=
EXTT8=
EXTT9=
EXTT10=
EXTT11=
EXTT12=
EXTT13=
EXTT14=
PLAYORDER=
